<?xml version="1.0" encoding="utf-8"?>
<!-- Generator: Adobe Illustrator 27.3.1, SVG Export Plug-In . SVG Version: 6.00 Build 0)  -->
<svg version="1.1" id="Layer_1" xmlns="http://www.w3.org/2000/svg" xmlns:xlink="http://www.w3.org/1999/xlink" x="0px" y="0px"
	 viewBox="0 0 1130 340" style="enable-background:new 0 0 1130 340;" xml:space="preserve">
<style type="text/css">
	.st0{clip-path:url(#SVGID_00000030471001671600539330000001221998393258580616_);}
	.st1{fill:#222044;}
	.st2{fill:#E3FF37;}
</style>
<g>
	<defs>
		<rect id="SVGID_1_" x="0.3" width="1129.3" height="340"/>
	</defs>
	<clipPath id="SVGID_00000126292805317034842320000017026777711582559159_">
		<use xlink:href="#SVGID_1_"  style="overflow:visible;"/>
	</clipPath>
	<g style="clip-path:url(#SVGID_00000126292805317034842320000017026777711582559159_);">
		<path class="st1" d="M919.7,340v-29.4h-29.4V288L876,310.6h-84.9v-81.4l-11.9,22.6h-14.3L750,281.2H606.5v-29.4h-20.2v29.4
			l-88.6,0l-16.5-45.6v-13.3h-44.5v58.9H353l-14.1-23.4v52.9H254l-26.7-42.2v-46.1h-17.8v29.5h-88.1V340H40L0.3,301.5V31h31V0H181
			l15.5,31h15.4l15.4,30.7V0h88.7l10.7,26V0h92.1l18.1,47.9v14.1h44.5V0h90.7L582,56.5l7.6-25.5h19.7l8.8-31h154.4v31h28.9l12.7-31
			h88.6v60.9L918.3,31h14.5l16.6-31h149.3v31h31v83.6l-31,38.6v1.7h31v125h-31v21.6l-38.8,38.6H919.7z"/>
		<path class="st2" d="M243.3,108.9v154.8h61.9V108.9H243.3z"/>
		<path class="st2" d="M243.3,16V78h61.9V16H243.3z"/>
		<path class="st2" d="M824.8,16v247.7h61.9V16H824.8z"/>
		<path class="st2" d="M756.5,47V16H632.7v31h-30.9v154.8h30.9v31h123.7v-31h31v-31h-61.9v31h-61.9v-62h123.8V47H756.5z
			 M663.6,108.9V47h61.9v61.9H663.6z"/>
		<path class="st2" d="M497.3,16V78h-31v31h-31V78h-31V16h-61.8V78h31v31h31v31h-31v31h-31v61.9h61.9v-61.9h31v-31h31v31h31v61.9
			h61.9v-61.9h-31v-31h-30.9v-31h30.9V78h31V16H497.3z"/>
		<path class="st2" d="M171,47V16H47.3v31h-31v247.7h61.9v-92.9H171v-31h31V47H171z M109.2,170.9h-31v-31v-31V78V47h31h31v31v31v31
			v31L109.2,170.9L109.2,170.9z"/>
		<path class="st2" d="M1082.7,47V16H959v31h-31v92.9h31v31h92.8v92.9h-61.9v-61.9H928v61.9h31v31h123.7v-31h31v-92.9h-31v-31h-92.8
			V47h61.9v61.9h61.9V47H1082.7z"/>
	</g>
</g>
<g>
	<polygon class="st1" points="197.3,340.3 197.3,333.5 190.6,333.5 190.6,282.7 197.3,282.7 197.3,276 234.6,276 234.6,282.7 
		241.4,282.7 241.4,306.4 217.7,306.4 217.7,299.6 214.2,299.6 214.2,316.6 217.7,316.6 217.7,309.8 241.4,309.8 241.4,333.5 
		234.6,333.5 234.6,340.3 	"/>
	<polygon class="st1" points="258.3,340.3 258.3,326.7 254.9,326.7 254.9,340.3 231.2,340.3 231.2,303.1 238,303.1 238,289.5 
		244.8,289.5 244.8,276 268.4,276 268.4,289.5 275.2,289.5 275.2,303 282,303 282,340.3 	"/>
	<path class="st2" d="M226.1,320v6.7h-20.4V320H199v-33.9h6.7V320H226.1z M205.8,286.1v-6.7h20.4v6.7h6.8v6.8h-6.8v-6.8H205.8z
		 M226.1,320v-6.8h6.8v6.8H226.1z"/>
	<polygon class="st1" points="271.9,340.3 271.9,276 295.5,276 295.5,316.6 315.9,316.6 315.9,340.3 	"/>
	<path class="st2" d="M260,292.9h-6.7v-13.5h6.7V292.9h6.8v13.5h6.8v20.4h-6.8v-13.5h-20.3v13.5h-6.8v-20.3h6.7v-13.6h6.8v13.5h6.7
		V292.9z"/>
	<polygon class="st1" points="312.5,340.3 312.5,333.5 305.8,333.5 305.8,282.7 312.5,282.7 312.5,276 349.8,276 349.8,282.7 
		356.6,282.7 356.6,306.4 332.9,306.4 332.9,299.6 329.4,299.6 329.4,316.6 332.9,316.6 332.9,309.8 356.6,309.8 356.6,333.5 
		349.8,333.5 349.8,340.3 	"/>
	<path class="st2" d="M280.3,326.8v-47.4h6.7V320h20.4v6.7H280.3z"/>
	<polygon class="st1" points="353.2,340.3 353.2,333.5 346.4,333.5 346.4,276 370.1,276 370.1,316.6 373.5,316.6 373.5,276 
		397.2,276 397.2,333.5 390.4,333.5 390.4,340.3 	"/>
	<path class="st2" d="M341.3,320v6.7H321V320h-6.7v-33.9h6.7V320H341.3z M321,286.1v-6.7h20.4v6.7h6.8v6.8h-6.8v-6.8H321z
		 M341.3,320v-6.8h6.8v6.8H341.3z"/>
	<polygon class="st1" points="387.1,340.3 387.1,276 410.7,276 410.7,316.6 431.1,316.6 431.1,340.3 	"/>
	<path class="st2" d="M382,320v6.7h-20.4V320h-6.7v-40.6h6.7V320H382z M382,320v-40.6h6.8V320H382z"/>
	<polygon class="st1" points="448.1,340.3 448.1,326.7 444.7,326.7 444.7,340.3 421,340.3 421,303.1 427.7,303.1 427.7,289.5 
		434.5,289.5 434.5,276 458.2,276 458.2,289.5 465,289.5 465,303 471.8,303 471.8,340.3 	"/>
	<path class="st2" d="M395.5,326.8v-47.4h6.7V320h20.4v6.7H395.5z"/>
	<polygon class="st1" points="475.2,340.3 475.2,299.6 461.6,299.6 461.6,276 512.4,276 512.4,299.6 498.9,299.6 498.9,340.3 	"/>
	<path class="st2" d="M449.7,292.9H443v-13.5h6.7V292.9h6.8v13.5h6.8v20.4h-6.8v-13.5h-20.3v13.5h-6.8v-20.3h6.7v-13.6h6.8v13.5h6.7
		V292.9z"/>
	<path class="st1" d="M502.3,340.3v-6.7h-6.7v-50.8h6.7V276h37.2v6.7h6.8v50.8h-6.8v6.7H502.3z M522.6,316.6v-17h-3.5v17H522.6z"/>
	<path class="st2" d="M490.4,286.1v40.6h-6.8v-40.6h-13.5v-6.7H504v6.7H490.4z"/>
	<polygon class="st1" points="563.3,340.3 563.3,320 559.9,320 559.9,340.3 536.2,340.3 536.2,276 580.2,276 580.2,282.7 587,282.7 
		587,340.3 	"/>
	<path class="st2" d="M531.1,326.8h-20.4V320H504v-33.9h6.7V320h20.4V326.8z M531.1,320v-33.9h-20.4v-6.7h20.4v6.7h6.8V320H531.1z"
		/>
	<polygon class="st1" points="597.2,340.3 597.2,276 641.2,276 641.2,282.7 648,282.7 648,333.5 641.2,333.5 641.2,340.3 	"/>
	<path class="st2" d="M571.7,306.5h6.8v20.3h-6.8V306.5h-20.3v20.3h-6.8v-47.4h27.1v6.7h6.8v13.5h-6.8v-13.5h-20.4v13.5h20.4V306.5z
		"/>
	<polygon class="st1" points="651.4,340.3 651.4,320 644.6,320 644.6,306.4 637.8,306.4 637.8,276 661.5,276 661.5,289.5 
		664.9,289.5 664.9,276 688.6,276 688.6,306.4 681.8,306.4 681.8,320 675,320 675,340.3 	"/>
	<path class="st2" d="M632.7,306.5h6.8V320h-6.8V306.5h-20.4V320h20.4v6.7h-27.1v-47.4h27.1v6.7h6.8v13.5h-6.8v-13.5h-20.4v13.5
		h20.4V306.5z"/>
	<polygon class="st1" points="712.4,340.3 712.4,299.6 698.8,299.6 698.8,276 749.6,276 749.6,299.6 736.1,299.6 736.1,340.3 	"/>
	<path class="st2" d="M666.6,306.5v20.3h-6.7v-20.3H653v-13.6h-6.7v-13.5h6.7v13.5h6.8v13.6H666.6z M673.4,292.9v13.6h-6.8v-13.6
		H673.4z M673.4,292.9v-13.5h6.8v13.5H673.4z"/>
	<polygon class="st1" points="773.4,340.3 773.4,326.7 769.9,326.7 769.9,340.3 746.3,340.3 746.3,326.7 739.5,326.7 739.5,306.4 
		732.7,306.4 732.7,276 756.4,276 756.4,289.5 759.8,289.5 759.8,276 783.5,276 783.5,289.5 786.9,289.5 786.9,276 810.6,276 
		810.6,306.4 803.8,306.4 803.8,326.7 797,326.7 797,340.3 	"/>
	<path class="st2" d="M727.6,286.1v40.6h-6.8v-40.6h-13.5v-6.7h33.9v6.7H727.6z"/>
	<polygon class="st1" points="827.6,340.3 827.6,333.5 824.2,333.5 824.2,340.3 800.5,340.3 800.5,276 824.1,276 824.1,282.7 
		827.6,282.7 827.6,276 851.3,276 851.3,299.6 844.5,299.6 844.5,306.4 837.7,306.4 837.7,309.8 844.5,309.8 844.5,316.6 
		851.3,316.6 851.3,340.3 	"/>
	<path class="st2" d="M747.9,292.9h-6.7v-13.5h6.7V292.9z M761.5,313.2v13.5h-6.7v-13.5H748v-20.4h6.7v20.4H761.5z M768.3,299.7
		v13.5h-6.8v-13.5H768.3z M788.6,313.2v13.5h-6.7v-13.5H775v-13.5h-6.7v-20.3h6.7v20.3h6.8v13.5H788.6z M795.4,292.9v20.4h-6.8
		v-20.4H795.4z M795.4,292.9v-13.5h6.8v13.5H795.4z"/>
	<rect x="841.1" y="276" class="st1" width="23.7" height="64.3"/>
	<path class="st2" d="M836,326.8V320h-6.8v-6.8h-6.7v-6.7h-6.7v20.3h-6.8v-47.4h6.7v20.3h6.8v6.8h6.7v6.7h6.8v6.8h6.8v6.7H836z
		 M822.5,299.7v-6.8h6.7v6.8H822.5z M829.2,292.9v-6.7h6.8v6.7H829.2z M836,286.1v-6.7h6.8v6.7H836z"/>
	<path class="st1" d="M888.6,340.3v-23.7h23.7v23.7H888.6z M888.6,313.2v-23.7h23.7v23.7H888.6z"/>
	<path class="st2" d="M849.6,326.8v-47.4h6.8v47.4H849.6z"/>
	<polygon class="st1" points="902.2,340.3 902.2,316.6 908.9,316.6 908.9,313.2 902.2,313.2 902.2,289.5 925.8,289.5 925.8,296.3 
		932.6,296.3 932.6,303 939.4,303 939.4,326.7 932.6,326.7 932.6,333.5 925.9,333.5 925.9,340.3 	"/>
	<path class="st2" d="M897,299.7v-6.8h6.8v6.8H897z M897,326.8V320h6.8v6.8H897z"/>
	<path class="st2" d="M917.4,299.7h-6.7v-6.8h6.7V299.7z M924.2,313.2v6.7h-6.7v6.8h-6.8V320h6.7v-6.8H924.2z M924.2,313.2v-6.7
		h-6.7v-6.8h6.7v6.7h6.8v6.8H924.2z"/>
</g>
</svg>
